<?xml version="1.0" encoding="utf-8"?>
<!-- Generator: Adobe Illustrator 25.2.1, SVG Export Plug-In . SVG Version: 6.00 Build 0)  -->
<svg version="1.1" id="Calque_1" xmlns="http://www.w3.org/2000/svg" xmlns:xlink="http://www.w3.org/1999/xlink" x="0px" y="0px"
	 viewBox="0 0 100 100" style="enable-background:new 0 0 100 100;" xml:space="preserve">
<style type="text/css">
	.st0{fill:#2B97D3;}
	.st1{fill:#FFFFFF;}
</style>
<circle class="st0" cx="50" cy="50" r="50"/>
<g>
	<path class="st1" d="M80,57.6c-0.2,1.1-0.4,2.1-0.7,3.2c-0.6,1.9-1.6,3.7-3.1,5.1c-0.2,0.2-0.5,0.5-0.9,0.3c-0.3-0.2-0.1-0.6,0-0.9
		c0.6-1.7,1.1-3.3,1.6-5c0.1-0.4,0.2-0.9,0.2-1.4c0-0.8-0.3-1.2-1-1.3c-0.7-0.1-1.5-0.2-2.2-0.2c-1.5,0.1-3,0.2-4.5,0.3
		c-0.2,0-0.5,0.1-0.6-0.2c-0.1-0.3,0.1-0.5,0.3-0.7c0.8-0.6,1.8-1,2.8-1.3c2.3-0.6,4.6-0.8,7-0.2c0.7,0.2,1.1,0.5,1.2,1.2
		C80,56.9,80,57.3,80,57.6z"/>
	<path class="st1" d="M66.1,33.3c0.6,0.1,1.1,0.4,1.3,1.1c0.2,0.7-0.1,1.4-0.6,1.7c-0.6,0.3-1.5,0.3-1.9-0.2
		c-0.4-0.4-0.6-1.3-0.2-1.9c0.3-0.5,0.7-0.6,1.2-0.7C65.9,33.3,66,33.3,66.1,33.3z"/>
	<path class="st1" d="M49.6,68.7c-9.3-0.1-17.7-2.8-25.3-8.2c-1.4-1-2.6-2.1-3.9-3.2c-0.2-0.2-0.4-0.5-0.3-0.8
		c0.1-0.2,0.3-0.3,0.4-0.4c0.2,0,0.4,0.1,0.6,0.2c1.3,0.7,2.5,1.4,3.8,2c4.2,2,8.5,3.5,13.1,4.4c2.2,0.4,4.5,0.8,6.7,1.1
		c2.5,0.3,5.1,0.4,7.6,0.2c2.2-0.1,4.5-0.3,6.7-0.6c3.1-0.4,6.2-1.1,9.1-2.1c1.6-0.5,3.2-1.2,4.8-1.7c0.2-0.1,0.5-0.2,0.8-0.2
		c0.4,0,0.8,0.2,0.9,0.5c0.1,0.4,0.1,0.8-0.3,1c-0.5,0.4-1,0.7-1.5,1c-4.4,2.8-9.2,4.6-14.3,5.6c-1.9,0.4-3.8,0.6-5.7,0.8
		c-1.1,0.1-2.2,0-3.3,0C49.6,68.6,49.6,68.6,49.6,68.7z"/>
	<path class="st1" d="M22.8,39.6c0.5-0.3,1-0.6,1.6-0.8c1.2-0.6,2.5-0.8,3.8-0.6c0.9,0.2,1.6,0.6,2,1.4c0,0,0.1,0.1,0.1,0.1
		c0.9-0.6,1.8-1.1,2.9-1.4c0.9-0.2,1.9-0.3,2.8-0.1c1.4,0.3,2.3,1.4,2.4,2.8c0.1,1.3,0.1,2.6,0.1,4c0,1.7,0,3.3,0,5
		c0,0.6-0.1,0.7-0.7,0.7c-0.3,0-0.7,0-1,0c-0.6,0-0.7-0.1-0.7-0.7c0-2.6,0-5.1,0-7.7c0-0.3-0.1-0.7-0.1-1c-0.2-0.7-0.7-1.1-1.5-1.2
		c-1.3-0.1-2.5,0.3-3.6,1c-0.1,0.1-0.1,0.3-0.1,0.4c0,2.8,0,5.7,0,8.5c0,0.6-0.1,0.7-0.7,0.7c-0.4,0-0.8,0-1.1,0
		c-0.4,0-0.5-0.2-0.6-0.6c0-0.2,0-0.5,0-0.7c0-2.5,0-4.9,0-7.4c0-1.5-0.8-2.1-2.3-2c-0.9,0.1-1.8,0.4-2.7,0.8
		c-0.2,0.1-0.3,0.3-0.3,0.6c0,2.8,0,5.6,0,8.4c0,0.8-0.1,0.8-0.8,0.8c-0.3,0-0.7,0-1,0c-0.4,0-0.5-0.1-0.5-0.6c0-3.7,0-7.4,0-11.1
		c0-0.4,0.1-0.5,0.5-0.6c0.3,0,0.6,0,0.9,0c0.5,0,0.6,0.1,0.7,0.6C22.7,39.2,22.8,39.4,22.8,39.6z"/>
	<path class="st1" d="M49.5,49.5c-0.9,0.4-1.7,0.9-2.6,1.2c-1,0.4-2.1,0.4-3.2,0.1c-1.2-0.3-2.1-1.4-2.2-2.6c0-0.5-0.1-1-0.1-1.5
		c0-2.5,0-5.1,0-7.6c0-0.6,0.1-0.7,0.7-0.7c0.3,0,0.7,0,1,0c0.5,0,0.7,0.2,0.7,0.7c0,0.8,0,1.6,0,2.4c0,1.8,0,3.6,0,5.5
		c0,1.4,0.6,2.1,2.1,2.1c0.6,0,1.2-0.1,1.7-0.3c0.5-0.1,0.9-0.4,1.3-0.6c0.3-0.1,0.3-0.3,0.3-0.6c0-2.8,0-5.5,0-8.3
		c0-0.7,0.1-0.8,0.8-0.8c0.3,0,0.6,0,1,0c0.5,0,0.6,0.2,0.6,0.7c0,3.5,0,7,0,10.6c0,0.1,0,0.3,0,0.4c0,0.4-0.1,0.5-0.5,0.6
		c-0.3,0-0.7,0-1,0c-0.3,0-0.5-0.2-0.6-0.5C49.6,49.9,49.5,49.7,49.5,49.5z"/>
	<path class="st1" d="M57.5,51c-0.7,0-1.9-0.2-3-0.6c-0.4-0.2-0.6-0.4-0.6-0.9c0-0.2,0-0.4,0-0.6c0-0.4,0.2-0.5,0.6-0.4
		c0.7,0.2,1.4,0.4,2.1,0.5c0.8,0.1,1.6,0.1,2.3,0c1.1-0.1,1.7-1.1,1.5-2c-0.1-0.5-0.5-0.7-0.9-0.9c-0.7-0.3-1.5-0.6-2.3-0.9
		c-0.5-0.2-1-0.4-1.5-0.7c-1.3-0.8-1.9-2-1.7-3.5c0.2-1.4,1.1-2.2,2.3-2.6c1.5-0.6,3-0.4,4.6,0c1.1,0.3,1.2,0.4,1.1,1.6
		c0,0.3-0.2,0.5-0.5,0.4c-0.7-0.1-1.4-0.4-2.1-0.4c-0.7-0.1-1.3,0-2,0.1c-0.6,0.1-1,0.5-1.1,1.1c-0.1,0.6,0.1,1.2,0.7,1.5
		c1,0.4,2,0.8,3,1.3c0.4,0.2,0.7,0.3,1.1,0.5c2.1,1.1,1.9,4.1,0.5,5.4C60.7,50.6,59.5,51,57.5,51z"/>
	<path class="st1" d="M69.6,44.6c0-1.4,0.3-2.8,1.1-4.1c0.8-1.3,2.1-2,3.6-2.3c1.3-0.2,2.5-0.1,3.7,0.3c0.5,0.2,0.6,0.3,0.6,0.9
		c0,0.2,0,0.3,0,0.5c0,0.6-0.2,0.7-0.7,0.6c-0.5-0.1-1.1-0.2-1.6-0.3c-0.6,0-1.1,0-1.7,0.1c-1.1,0.2-1.9,0.9-2.2,2
		c-0.4,1.4-0.4,2.8,0,4.3c0.4,1.5,1.4,2.1,3,2.3c0.9,0.1,1.8-0.1,2.7-0.3c0.5-0.1,0.7,0,0.7,0.5c0,1.2,0,1.2-1.1,1.5
		c-1.6,0.4-3.1,0.4-4.7-0.1c-1.8-0.7-2.8-2.1-3.1-4C69.7,45.8,69.7,45.2,69.6,44.6z"/>
	<path class="st1" d="M67.2,44.5c0,1.8,0,3.6,0,5.4c0,0.5-0.1,0.7-0.7,0.7c-0.3,0-0.6,0-1,0c-0.6,0-0.8-0.1-0.8-0.8
		c0-3.2,0-6.4,0-9.6c0-0.4,0-0.8,0-1.2c0-0.5,0.2-0.6,0.6-0.6c0.4,0,0.8,0,1.1,0c0.5,0,0.7,0.2,0.7,0.7
		C67.2,40.9,67.2,42.7,67.2,44.5C67.2,44.5,67.2,44.5,67.2,44.5z"/>
</g>
</svg>
