<svg width="44" height="38" viewBox="0 0 44 38" fill="none" xmlns="http://www.w3.org/2000/svg">
<g filter="url(#filter0_d_2055_3739)">
<mask id="mask0_2055_3739" style="mask-type:luminance" maskUnits="userSpaceOnUse" x="2" y="2" width="36" height="30">
<path d="M37.5299 2H2V31.3642H37.5299V2Z" fill="white"/>
</mask>
<g mask="url(#mask0_2055_3739)">
<path d="M37.4582 31.3319H16.8765C14.9069 31.3387 12.9557 30.9578 11.1353 30.211C9.31478 29.4641 7.66139 28.3664 6.27065 26.9809C4.56501 25.2692 3.31003 23.1665 2.6166 20.8586C1.9232 18.5504 1.8127 16.1085 2.29486 13.748C2.77702 11.3876 3.83703 9.18147 5.38118 7.32459C6.92535 5.46773 8.90616 4.01732 11.1485 3.10149C13.391 2.18565 15.8259 1.83263 18.238 2.07356C20.6505 2.31453 22.9659 3.14206 24.98 4.48303C26.9939 5.82402 28.6444 7.63715 29.7855 9.76223C30.9267 11.8874 31.5232 14.2588 31.5229 16.6676C31.5229 16.7147 31.5229 16.7607 31.5229 16.8079C31.4865 20.6501 27.2593 22.9942 23.9553 20.9983C24.9194 19.4192 25.3297 17.5675 25.1219 15.7321C24.9144 13.8969 24.1005 12.1817 22.8073 10.8549C21.5145 9.52791 19.8154 8.66389 17.9759 8.39783C16.1361 8.13187 14.2596 8.47893 12.6395 9.38465C11.0195 10.2905 9.74735 11.7041 9.02173 13.4046C8.29612 15.1047 8.15806 16.9959 8.62914 18.7827C9.10023 20.5691 10.1539 22.1501 11.6253 23.2787C13.0969 24.4072 14.9033 25.0197 16.7625 25.02H31.1046C32.7897 25.02 34.4056 25.685 35.5972 26.8688C36.7888 28.0526 37.4582 29.6578 37.4582 31.3319Z" fill="white"/>
</g>
</g>
<defs>
<filter id="filter0_d_2055_3739" x="0" y="0" width="43.458" height="37.332" filterUnits="userSpaceOnUse" color-interpolation-filters="sRGB">
<feFlood flood-opacity="0" result="BackgroundImageFix"/>
<feColorMatrix in="SourceAlpha" type="matrix" values="0 0 0 0 0 0 0 0 0 0 0 0 0 0 0 0 0 0 127 0" result="hardAlpha"/>
<feOffset dx="2" dy="2"/>
<feGaussianBlur stdDeviation="2"/>
<feComposite in2="hardAlpha" operator="out"/>
<feColorMatrix type="matrix" values="0 0 0 0 0.454167 0 0 0 0 0.454167 0 0 0 0 0.454167 0 0 0 0.25 0"/>
<feBlend mode="normal" in2="BackgroundImageFix" result="effect1_dropShadow_2055_3739"/>
<feBlend mode="normal" in="SourceGraphic" in2="effect1_dropShadow_2055_3739" result="shape"/>
</filter>
</defs>
</svg>
