<svg width="600" height="600" viewBox="0 0 600 600" fill="none" xmlns="http://www.w3.org/2000/svg">
<rect width="600" height="600"/>
<g clip-path="url(#clip0_26_963)">
<path d="M505.166 470.622H265.926C243.032 470.703 220.349 466.253 199.188 457.53C178.027 448.807 158.808 435.983 142.642 419.799C122.816 399.805 108.228 375.243 100.168 348.284C92.1072 321.325 90.8227 292.799 96.4275 265.227C102.032 237.655 114.354 211.886 132.303 190.196C150.253 168.506 173.277 151.564 199.343 140.866C225.408 130.169 253.712 126.045 281.753 128.859C309.794 131.674 336.709 141.34 360.119 157.004C383.529 172.668 402.715 193.847 415.979 218.67C429.244 243.493 436.18 271.195 436.174 299.329C436.174 299.88 436.174 300.419 436.174 300.97C435.751 345.85 386.614 373.231 348.208 349.918C359.415 331.473 364.185 309.842 361.771 288.404C359.357 266.967 349.896 246.932 334.867 231.432C319.838 215.932 300.088 205.839 278.704 202.732C257.32 199.626 235.507 203.68 216.676 214.261C197.844 224.842 183.056 241.353 174.621 261.214C166.187 281.075 164.582 303.167 170.058 324.035C175.533 344.903 187.781 363.372 204.886 376.555C221.991 389.737 242.99 396.89 264.599 396.896H431.313C450.9 396.896 469.685 404.664 483.535 418.49C497.385 432.316 505.166 451.069 505.166 470.622Z" fill="url(#paint0_linear_26_963)"/>
</g>
<defs>
<linearGradient id="paint0_linear_26_963" x1="513.514" y1="299.329" x2="87.4346" y2="299.329" gradientUnits="userSpaceOnUse">
<stop stop-color="#ED711E"/>
<stop offset="1" stop-color="#E9295C"/>
</linearGradient>
<clipPath id="clip0_26_963">
<rect width="413" height="343" transform="translate(93 128)"/>
</clipPath>
</defs>
</svg>
