<svg width="400" height="52" viewBox="0 0 400 52" fill="none" xmlns="http://www.w3.org/2000/svg">
<g opacity="0.25">
<path d="M-26.1445 6.02415C54.9869 36.9177 82.6728 70.9874 92.7065 96.8335C103.903 125.679 98.129 157.206 110.216 159.163C117.956 160.418 127.479 148.645 145.234 122.839C199.076 44.5835 200.295 23.8018 223.235 18.4081C255.37 10.8468 275.179 46.419 324.575 45.6522C360.854 45.0877 390.211 25.2817 409.998 7.67622" stroke="url(#paint0_linear_1850_28264)" stroke-miterlimit="10"/>
<path d="M-28.0928 9.12964C50.7543 39.358 80.0305 72.4747 90.8598 96.6979C102.961 123.768 97.2462 153.666 109.207 155.08C116.897 155.99 126.242 144.419 143.392 119.497C195.514 43.7695 197.13 22.7291 219.893 17.6017C252.214 10.4233 271.161 48.5686 321.08 49.0879C322.168 49.0992 323.24 49.0992 324.312 49.0767C359.731 48.3099 389.506 28.4944 409.716 10.9972" stroke="url(#paint1_linear_1850_28264)" stroke-miterlimit="10"/>
<path d="M-30.0347 12.2357C46.5219 41.7961 77.3654 73.9033 89.0183 96.561C102.006 121.816 96.3721 150.123 108.204 150.996C115.847 151.56 125.013 140.189 141.554 116.153C191.944 42.9571 193.949 21.5902 216.561 16.7959C249.039 9.90908 267.161 50.7376 317.594 52.5252C318.7 52.5647 319.803 52.6042 320.906 52.5995C356.91 52.4452 388.233 32.2205 409.441 14.3196" stroke="url(#paint2_linear_1850_28264)" stroke-miterlimit="10"/>
<path d="M-31.981 15.3407C42.2961 44.2416 74.6584 75.2622 87.1736 96.423C101.012 119.822 95.4997 146.577 107.196 146.909C114.795 147.125 123.773 135.96 139.713 112.808C188.377 42.1361 190.779 20.4879 213.225 15.9889C245.876 9.44461 263.163 52.9216 314.104 55.9613C315.235 56.0291 316.364 56.094 317.49 56.1222C354.077 57.0311 386.951 35.9464 409.156 17.6429" stroke="url(#paint3_linear_1850_28264)" stroke-miterlimit="10"/>
<path d="M-33.9268 18.4463C38.0659 46.6792 71.8976 76.5491 85.3282 96.2856C99.9608 117.788 94.6326 143.027 106.19 142.823C113.747 142.69 122.539 131.73 137.874 109.464C184.811 41.3194 187.61 19.389 209.89 15.1835C242.724 8.98542 259.171 55.1221 310.615 59.4018C311.77 59.4959 312.926 59.59 314.086 59.6483C351.253 61.3813 385.677 39.6748 408.884 20.9648" stroke="url(#paint4_linear_1850_28264)" stroke-miterlimit="10"/>
<path d="M-35.8726 21.5521C33.8369 49.118 69.0666 77.7583 83.4864 96.1475C98.8301 115.716 93.7655 139.475 105.186 138.738C112.703 138.253 121.305 127.501 136.036 106.119C181.248 40.5029 184.447 18.294 206.557 14.3774C239.571 8.53026 255.183 57.3379 307.129 62.836C308.309 62.9611 309.49 63.0881 310.68 63.1691C348.426 65.7187 384.408 43.3988 408.608 24.2842" stroke="url(#paint5_linear_1850_28264)" stroke-miterlimit="10"/>
<path d="M-37.8169 24.6581C29.607 51.5598 66.1439 78.8904 81.64 96.0105C97.5823 113.624 92.9059 135.918 104.178 134.653C111.658 133.813 120.068 123.269 134.193 102.776C177.68 39.6876 181.281 17.2021 203.219 13.5725C236.421 8.07905 251.191 59.567 303.638 66.2732C304.847 66.4275 306.049 66.5855 307.266 66.6918C345.589 70.0524 383.127 47.1229 408.326 27.6066" stroke="url(#paint6_linear_1850_28264)" stroke-miterlimit="10"/>
<path d="M-39.7627 27.7637C25.3768 54.0002 59.5217 82.7073 79.7958 95.8731C92.0751 113.661 92.0449 132.356 103.172 130.568C110.614 129.371 118.834 119.043 132.354 99.4266C174.113 38.8663 178.118 16.1089 199.884 12.7615C233.272 7.62747 247.201 61.8043 300.148 69.7053C301.379 69.8887 302.611 70.0769 303.858 70.2105C342.76 74.3736 381.858 50.8466 408.051 30.9239" stroke="url(#paint7_linear_1850_28264)" stroke-miterlimit="10"/>
<path d="M-41.7084 30.869C21.1479 56.4404 56.2155 84.3826 77.9517 95.7354C90.3858 111.944 91.1839 128.789 102.166 126.481C109.571 124.925 117.598 114.815 130.513 96.0863C170.541 38.054 174.956 15.0275 196.55 11.9595C230.125 7.18961 243.209 64.0628 296.659 73.1464C297.914 73.36 299.172 73.5782 300.449 73.7382C339.931 78.6972 380.578 54.5766 407.773 34.2503" stroke="url(#paint8_linear_1850_28264)" stroke-miterlimit="10"/>
<path d="M-43.6541 33.9746C16.9179 58.8808 52.9082 86.0562 76.1064 95.598C88.6953 110.228 90.323 125.219 101.16 122.396C108.528 120.478 116.363 110.585 128.673 92.7426C166.981 37.2345 171.797 13.9465 193.215 11.1551C226.981 6.75303 239.213 66.3283 293.17 76.5851C294.45 76.8278 295.734 77.0752 297.04 77.2624C337.101 83.0127 379.302 58.3041 407.495 37.5732" stroke="url(#paint9_linear_1850_28264)" stroke-miterlimit="10"/>
<path d="M-45.5991 37.0805C12.6896 61.3216 49.6014 87.7312 74.2617 95.46C87.0054 108.51 89.4603 121.643 100.152 118.311C107.483 116.026 115.128 106.355 126.833 89.4012C163.414 36.4239 168.637 12.8705 189.879 10.351C223.836 6.32341 235.215 68.6054 289.681 80.0241C290.986 80.2978 292.295 80.5726 293.629 80.788C334.273 87.3238 378.026 62.0319 407.216 40.8974" stroke="url(#paint10_linear_1850_28264)" stroke-miterlimit="10"/>
<path d="M-47.5448 40.1868C8.45714 63.7608 46.2977 89.4055 72.4188 95.3186C85.3173 106.789 88.5969 118.061 99.1445 114.22C106.435 111.567 113.892 102.122 124.991 86.0496C159.847 35.6003 165.478 11.7892 186.545 9.53878C220.696 5.88936 231.213 70.8799 286.192 83.4539C287.522 83.7578 288.853 84.0617 290.22 84.3007C331.447 91.6183 376.75 65.7487 406.938 44.2097" stroke="url(#paint11_linear_1850_28264)" stroke-miterlimit="10"/>
<path d="M-49.4905 43.2926C4.22829 66.2015 42.9867 91.0804 70.5735 95.1852C83.6268 105.076 87.7275 114.482 98.1397 110.139C105.388 107.116 112.657 97.8956 123.152 82.709C156.287 34.7876 162.321 10.7216 183.209 8.73646C217.553 5.47277 227.205 73.1776 282.703 86.8947C284.057 87.2296 285.418 87.5608 286.815 87.8308C328.627 95.9218 375.478 69.4849 406.664 47.5376" stroke="url(#paint12_linear_1850_28264)" stroke-miterlimit="10"/>
<path d="M-51.4324 46.3982C-0.00162089 68.6419 39.6795 92.7541 68.7295 95.0459C81.9364 103.357 86.8559 110.898 97.1338 106.053C104.339 102.657 111.423 93.6667 121.313 79.3653C152.717 33.971 159.164 9.65092 179.874 7.93017C214.414 5.05692 223.192 75.4807 279.214 90.3315C280.592 90.6975 281.98 91.0568 283.403 91.3541C325.801 100.22 374.199 73.2077 406.389 50.8596" stroke="url(#paint13_linear_1850_28264)" stroke-miterlimit="10"/>
<path d="M-53.3809 49.5037C-4.23207 71.0823 36.3729 94.4286 66.885 94.9093C80.2467 101.641 85.9813 107.312 96.1274 101.965C103.285 98.1956 110.188 89.4357 119.467 76.0187C149.146 33.1523 156.002 8.5867 176.533 7.12279C211.268 4.64563 219.17 77.778 275.72 93.7672C277.122 94.1633 278.537 94.5499 279.987 94.8755C322.977 104.511 372.918 76.9313 406.1 54.1796" stroke="url(#paint14_linear_1850_28264)" stroke-miterlimit="10"/>
<path d="M-55.3264 52.6096C-8.46202 73.523 33.0657 96.1035 65.0399 94.7723C78.5575 99.9242 85.1023 103.725 95.1214 97.8826C102.23 93.7374 108.952 85.2079 117.633 72.6763C145.585 32.3388 152.849 7.52763 173.204 6.31868C208.134 4.24418 215.153 80.0937 272.236 97.2014C273.663 97.6286 275.104 98.0425 276.589 98.3953C320.164 108.803 371.647 80.66 405.827 57.5075" stroke="url(#paint15_linear_1850_28264)" stroke-miterlimit="10"/>
<path d="M-57.272 55.7153C-12.6907 75.9626 29.7585 97.7745 63.1959 94.635C76.8611 98.2101 84.2198 100.136 94.1155 93.7967C101.171 89.2761 107.718 80.979 115.792 69.3355C142.019 31.526 149.692 6.47305 169.869 5.51718C204.994 3.85194 211.125 82.4138 268.747 100.647C270.198 101.106 271.666 101.546 273.174 101.927C317.349 113.089 370.375 84.3857 405.549 60.8258" stroke="url(#paint16_linear_1850_28264)" stroke-miterlimit="10"/>
<path d="M-59.2178 58.825C-16.9209 78.4071 26.451 99.456 61.3505 94.5007C75.1765 96.4943 83.3333 96.5517 93.1069 89.7157C100.109 84.8235 106.482 76.7541 113.951 65.9921C138.451 30.7115 146.533 5.41866 166.533 4.71116C201.853 3.458 207.092 84.7313 265.258 104.078C266.732 104.569 268.228 105.036 269.764 105.445C314.538 117.372 369.096 88.1107 405.271 64.1434" stroke="url(#paint17_linear_1850_28264)" stroke-miterlimit="10"/>
<path d="M-61.1628 61.9293C-21.1516 80.8396 22.6847 89.3136 59.507 94.3592C73.2859 96.2474 82.4452 92.9583 92.1015 85.6256C99.0466 80.357 105.248 72.52 112.112 62.6433C134.886 29.8888 143.375 4.36263 163.198 3.90069C198.711 3.07372 203.053 87.0566 261.769 107.517C263.266 108.039 264.792 108.533 266.355 108.97C311.727 121.655 367.816 91.8378 404.994 67.4697" stroke="url(#paint18_linear_1850_28264)" stroke-miterlimit="10"/>
<path d="M-63.1086 65.0339C-25.3782 83.2857 19.0035 100.153 57.6627 94.2237C71.6085 92.0842 81.5527 89.3719 91.0953 81.5415C97.9812 75.8966 104.012 68.2929 110.271 59.3006C131.321 29.0741 140.215 3.31643 159.863 3.09722C195.566 2.69832 199.009 89.3869 258.279 110.956C259.801 111.509 261.354 112.027 262.946 112.494C308.953 125.864 366.544 95.5643 404.719 70.7917" stroke="url(#paint19_linear_1850_28264)" stroke-miterlimit="10"/>
<path d="M-65.0542 68.1383C-29.6105 85.725 15.995 103.159 55.8188 94.0851C69.9447 90.8656 80.658 85.7824 90.0894 77.4552C96.9135 71.434 102.777 64.0618 108.431 55.9557C127.755 28.2562 137.055 2.20412 156.528 2.28973C192.421 2.44779 194.918 91.7838 254.79 114.392C256.334 114.979 257.916 115.52 259.536 116.016C306.133 130.177 365.268 99.2906 404.437 74.1144" stroke="url(#paint20_linear_1850_28264)" stroke-miterlimit="10"/>
<path d="M-67 71.2437C-33.8407 88.1643 13.222 106.148 53.9734 93.9465C115.406 75.5498 120.721 1.05136 153.194 1.48414C190.211 1.97712 190.968 98.8952 256.126 119.54C303.311 134.489 363.997 103.017 404.159 77.4352" stroke="url(#paint21_linear_1850_28264)" stroke-miterlimit="10"/>
</g>
<defs>
<linearGradient id="paint0_linear_1850_28264" x1="409.998" y1="6.02415" x2="75.3307" y2="282.214" gradientUnits="userSpaceOnUse">
<stop stop-color="#E0E0E0"/>
<stop offset="1" stop-color="white" stop-opacity="0.8"/>
</linearGradient>
<linearGradient id="paint1_linear_1850_28264" x1="409.716" y1="9.12963" x2="88.0929" y2="288.762" gradientUnits="userSpaceOnUse">
<stop stop-color="#E0E0E0"/>
<stop offset="1" stop-color="white" stop-opacity="0.8"/>
</linearGradient>
<linearGradient id="paint2_linear_1850_28264" x1="409.441" y1="12.2357" x2="101.848" y2="294.654" gradientUnits="userSpaceOnUse">
<stop stop-color="#E0E0E0"/>
<stop offset="1" stop-color="white" stop-opacity="0.8"/>
</linearGradient>
<linearGradient id="paint3_linear_1850_28264" x1="409.156" y1="15.3189" x2="116.547" y2="299.724" gradientUnits="userSpaceOnUse">
<stop stop-color="#E0E0E0"/>
<stop offset="1" stop-color="white" stop-opacity="0.8"/>
</linearGradient>
<linearGradient id="paint4_linear_1850_28264" x1="408.884" y1="14.6117" x2="123.677" y2="300.211" gradientUnits="userSpaceOnUse">
<stop stop-color="#E0E0E0"/>
<stop offset="1" stop-color="white" stop-opacity="0.8"/>
</linearGradient>
<linearGradient id="paint5_linear_1850_28264" x1="408.608" y1="13.8921" x2="130.991" y2="300.426" gradientUnits="userSpaceOnUse">
<stop stop-color="#E0E0E0"/>
<stop offset="1" stop-color="white" stop-opacity="0.8"/>
</linearGradient>
<linearGradient id="paint6_linear_1850_28264" x1="408.326" y1="13.1631" x2="138.483" y2="300.354" gradientUnits="userSpaceOnUse">
<stop stop-color="#E0E0E0"/>
<stop offset="1" stop-color="white" stop-opacity="0.8"/>
</linearGradient>
<linearGradient id="paint7_linear_1850_28264" x1="408.051" y1="12.4191" x2="146.108" y2="299.992" gradientUnits="userSpaceOnUse">
<stop stop-color="#E0E0E0"/>
<stop offset="1" stop-color="white" stop-opacity="0.8"/>
</linearGradient>
<linearGradient id="paint8_linear_1850_28264" x1="407.773" y1="11.676" x2="153.899" y2="299.331" gradientUnits="userSpaceOnUse">
<stop stop-color="#E0E0E0"/>
<stop offset="1" stop-color="white" stop-opacity="0.8"/>
</linearGradient>
<linearGradient id="paint9_linear_1850_28264" x1="407.495" y1="10.9231" x2="161.785" y2="298.358" gradientUnits="userSpaceOnUse">
<stop stop-color="#E0E0E0"/>
<stop offset="1" stop-color="white" stop-opacity="0.8"/>
</linearGradient>
<linearGradient id="paint10_linear_1850_28264" x1="407.216" y1="10.1641" x2="169.737" y2="297.073" gradientUnits="userSpaceOnUse">
<stop stop-color="#E0E0E0"/>
<stop offset="1" stop-color="white" stop-opacity="0.8"/>
</linearGradient>
<linearGradient id="paint11_linear_1850_28264" x1="406.938" y1="9.3909" x2="177.687" y2="295.474" gradientUnits="userSpaceOnUse">
<stop stop-color="#E0E0E0"/>
<stop offset="1" stop-color="white" stop-opacity="0.8"/>
</linearGradient>
<linearGradient id="paint12_linear_1850_28264" x1="406.664" y1="8.62232" x2="185.582" y2="293.596" gradientUnits="userSpaceOnUse">
<stop stop-color="#E0E0E0"/>
<stop offset="1" stop-color="white" stop-opacity="0.8"/>
</linearGradient>
<linearGradient id="paint13_linear_1850_28264" x1="406.389" y1="7.84469" x2="193.307" y2="291.454" gradientUnits="userSpaceOnUse">
<stop stop-color="#E0E0E0"/>
<stop offset="1" stop-color="white" stop-opacity="0.8"/>
</linearGradient>
<linearGradient id="paint14_linear_1850_28264" x1="406.1" y1="7.06132" x2="200.687" y2="289.115" gradientUnits="userSpaceOnUse">
<stop stop-color="#E0E0E0"/>
<stop offset="1" stop-color="white" stop-opacity="0.8"/>
</linearGradient>
<linearGradient id="paint15_linear_1850_28264" x1="405.827" y1="6.27694" x2="207.518" y2="286.705" gradientUnits="userSpaceOnUse">
<stop stop-color="#E0E0E0"/>
<stop offset="1" stop-color="white" stop-opacity="0.8"/>
</linearGradient>
<linearGradient id="paint16_linear_1850_28264" x1="405.549" y1="5.4911" x2="195.35" y2="290.636" gradientUnits="userSpaceOnUse">
<stop stop-color="#E0E0E0"/>
<stop offset="1" stop-color="white" stop-opacity="0.8"/>
</linearGradient>
<linearGradient id="paint17_linear_1850_28264" x1="405.271" y1="4.69683" x2="182.791" y2="294.187" gradientUnits="userSpaceOnUse">
<stop stop-color="#E0E0E0"/>
<stop offset="1" stop-color="white" stop-opacity="0.8"/>
</linearGradient>
<linearGradient id="paint18_linear_1850_28264" x1="404.994" y1="3.89463" x2="170.408" y2="297.202" gradientUnits="userSpaceOnUse">
<stop stop-color="#E0E0E0"/>
<stop offset="1" stop-color="white" stop-opacity="0.8"/>
</linearGradient>
<linearGradient id="paint19_linear_1850_28264" x1="404.719" y1="3.09584" x2="158.333" y2="299.711" gradientUnits="userSpaceOnUse">
<stop stop-color="#E0E0E0"/>
<stop offset="1" stop-color="white" stop-opacity="0.8"/>
</linearGradient>
<linearGradient id="paint20_linear_1850_28264" x1="404.437" y1="2.28952" x2="146.383" y2="301.772" gradientUnits="userSpaceOnUse">
<stop stop-color="#E0E0E0"/>
<stop offset="1" stop-color="white" stop-opacity="0.8"/>
</linearGradient>
<linearGradient id="paint21_linear_1850_28264" x1="404.159" y1="1.48226" x2="134.687" y2="303.411" gradientUnits="userSpaceOnUse">
<stop stop-color="#E0E0E0"/>
<stop offset="1" stop-color="white" stop-opacity="0.8"/>
</linearGradient>
</defs>
</svg>
