<svg width="400" height="63" viewBox="0 0 400 63" fill="none" xmlns="http://www.w3.org/2000/svg">
<g opacity="0.7">
<path d="M-13.1446 6.84433C67.9868 46.594 95.6728 90.4304 105.706 123.686C116.903 160.8 111.129 201.364 123.216 203.884C130.956 205.497 140.479 190.35 158.234 157.146C212.076 56.4573 213.295 29.7182 236.235 22.7784C268.37 13.0494 288.179 58.819 337.575 57.8325C373.854 57.1061 403.211 31.6224 422.998 8.96999" stroke="url(#paint0_linear_218_24)" stroke-miterlimit="10"/>
<path d="M-15.0928 10.8403C63.7542 49.7341 93.0304 92.3443 103.86 123.511C115.961 158.342 110.246 196.811 122.207 198.63C129.897 199.801 139.242 184.912 156.392 152.846C208.513 55.4102 210.13 28.3382 232.893 21.7409C265.214 12.5047 284.161 61.5851 334.08 62.2533C335.168 62.2678 336.24 62.2678 337.312 62.2387C372.731 61.2522 402.506 35.7563 422.716 13.2431" stroke="url(#paint1_linear_218_24)" stroke-miterlimit="10"/>
<path d="M-17.0347 14.8362C59.5219 52.8706 90.3653 94.1819 102.018 123.335C115.006 155.83 109.372 192.252 121.204 193.374C128.847 194.1 138.013 179.47 154.554 148.543C204.944 54.3644 206.949 26.8724 229.561 20.7036C262.039 11.8426 280.161 64.3754 330.594 66.6753C331.7 66.7262 332.803 66.777 333.906 66.771C369.909 66.5724 401.233 40.55 422.441 17.5175" stroke="url(#paint2_linear_218_24)" stroke-miterlimit="10"/>
<path d="M-18.981 18.8321C55.296 56.0179 87.6584 95.931 100.174 123.158C114.012 153.265 108.5 187.689 120.196 188.117C127.795 188.395 136.773 174.029 152.713 144.24C201.377 53.3088 203.779 25.4548 226.225 19.6661C258.876 11.2458 276.163 67.1861 327.104 71.0973C328.235 71.1844 329.364 71.268 330.49 71.3043C367.077 72.4737 399.951 45.3448 422.156 21.7942" stroke="url(#paint3_linear_218_24)" stroke-miterlimit="10"/>
<path d="M-20.9268 22.828C51.0659 59.1544 84.8976 97.587 98.3282 122.981C112.961 150.648 107.633 183.122 119.19 182.859C126.747 182.689 135.539 168.586 150.874 139.937C197.811 52.2581 200.61 24.0409 222.89 18.6299C255.724 10.6551 272.171 70.0175 323.615 75.5242C324.77 75.6452 325.926 75.7663 327.086 75.8413C364.253 78.0711 398.677 50.1421 421.884 26.0685" stroke="url(#paint4_linear_218_24)" stroke-miterlimit="10"/>
<path d="M-22.8725 26.8239C46.837 62.292 82.0666 99.1425 96.4864 122.803C111.83 147.982 106.766 178.551 118.186 177.603C125.703 176.979 134.305 163.145 149.036 135.634C194.248 51.2073 197.447 22.6319 219.557 17.5925C252.571 10.0691 268.183 72.8683 320.129 79.9425C321.309 80.1035 322.49 80.2669 323.68 80.3711C361.426 83.6515 397.408 54.9333 421.608 30.3392" stroke="url(#paint5_linear_218_24)" stroke-miterlimit="10"/>
<path d="M-24.8169 30.8198C42.607 65.4333 79.1439 100.599 94.64 122.627C110.582 145.29 105.906 173.974 117.178 172.346C124.658 171.266 133.068 157.699 147.193 131.331C190.68 50.1578 194.281 21.2265 216.219 16.5563C249.421 9.48812 264.191 75.736 316.638 84.3646C317.847 84.5631 319.049 84.7665 320.266 84.9032C358.589 89.2272 396.127 59.7245 421.326 34.6136" stroke="url(#paint6_linear_218_24)" stroke-miterlimit="10"/>
<path d="M-26.7626 34.8157C38.3769 68.5734 72.5217 105.51 92.7958 122.45C105.075 145.337 105.045 169.391 116.172 167.09C123.614 165.55 131.834 152.261 145.354 127.022C187.114 49.101 191.118 19.8199 212.884 15.5128C246.272 8.90706 260.201 78.6146 313.148 88.7805C314.379 89.0166 315.611 89.2587 316.858 89.4306C355.76 94.7871 394.859 64.5157 421.051 38.8818" stroke="url(#paint7_linear_218_24)" stroke-miterlimit="10"/>
<path d="M-28.7084 38.8117C34.1479 71.7135 69.2155 107.666 90.9517 122.273C103.386 143.128 104.184 164.802 115.166 161.833C122.571 159.831 130.598 146.822 143.513 122.725C183.541 48.0564 187.956 18.429 209.55 14.4815C243.125 8.3442 256.209 81.5211 309.659 93.2086C310.914 93.4834 312.172 93.7642 313.449 93.97C352.931 100.351 393.578 69.3155 420.773 43.1623" stroke="url(#paint8_linear_218_24)" stroke-miterlimit="10"/>
<path d="M-30.6541 42.8076C29.9179 74.8536 65.9082 109.819 89.1064 122.096C101.695 140.92 103.323 160.208 114.16 156.577C121.528 154.108 129.363 141.38 141.673 118.422C179.981 47.002 184.797 17.0381 206.215 13.4465C239.981 7.78251 252.213 84.436 306.17 97.633C307.45 97.9454 308.734 98.2637 310.04 98.5046C350.101 105.903 392.302 74.1115 420.495 47.4378" stroke="url(#paint9_linear_218_24)" stroke-miterlimit="10"/>
<path d="M-32.5991 46.8035C25.6897 77.9936 62.6015 111.974 87.2617 121.918C100.005 138.709 102.46 155.607 113.152 151.319C120.483 148.38 128.128 135.936 139.833 114.123C176.415 45.9585 181.638 15.6533 202.879 12.4115C236.836 7.22928 248.215 87.3654 302.681 102.057C303.986 102.41 305.296 102.763 306.629 103.04C347.273 111.45 391.026 78.9075 420.216 51.7145" stroke="url(#paint10_linear_218_24)" stroke-miterlimit="10"/>
<path d="M-34.5448 50.8006C21.4571 81.1325 59.2977 114.129 85.4188 121.737C98.3173 136.495 101.597 150.999 112.145 146.057C119.435 142.644 126.892 130.49 137.991 109.811C172.847 44.8993 178.478 14.2624 199.545 11.3668C233.696 6.67123 244.213 90.2924 299.192 106.471C300.522 106.862 301.853 107.253 303.22 107.56C344.447 116.976 389.75 83.6903 419.938 55.9767" stroke="url(#paint11_linear_218_24)" stroke-miterlimit="10"/>
<path d="M-36.4905 54.7965C17.2282 84.2726 55.9866 116.283 83.5734 121.565C96.6267 134.291 100.727 146.394 111.14 140.806C118.388 136.915 125.657 125.052 136.152 105.512C169.287 43.8534 175.321 12.8884 196.209 10.3343C230.553 6.13498 240.204 93.2485 295.703 110.898C297.057 111.329 298.418 111.755 299.815 112.102C341.627 122.513 388.478 88.4973 419.664 60.2583" stroke="url(#paint12_linear_218_24)" stroke-miterlimit="10"/>
<path d="M-38.4324 58.7924C12.9984 87.4126 52.6795 118.437 81.7295 121.386C94.9364 132.079 99.8559 141.782 110.134 135.549C117.339 131.179 124.423 119.611 134.313 101.21C165.717 42.8027 172.164 11.5108 192.874 9.2968C227.414 5.59988 236.192 96.2118 292.214 115.32C293.592 115.791 294.98 116.253 296.403 116.636C338.801 128.044 387.199 93.2872 419.389 64.5326" stroke="url(#paint13_linear_218_24)" stroke-miterlimit="10"/>
<path d="M-40.3807 62.7883C8.76805 90.5527 49.3731 120.592 79.8852 121.21C93.2468 129.871 98.9814 137.168 109.127 130.289C116.285 125.439 123.188 114.167 132.467 96.9043C162.146 41.7496 169.002 10.1418 189.533 8.25822C224.268 5.07094 232.17 99.168 288.72 119.741C290.123 120.25 291.537 120.748 292.987 121.167C335.977 133.565 385.918 98.0785 419.1 68.8046" stroke="url(#paint14_linear_218_24)" stroke-miterlimit="10"/>
<path d="M-42.3264 66.7842C4.53804 93.6928 46.0658 122.746 78.0399 121.033C91.5576 127.662 98.1024 132.553 108.122 125.035C115.23 119.702 121.952 108.727 130.633 92.6033C158.585 40.7024 165.849 8.77873 186.204 7.22321C221.134 4.55403 228.153 102.147 285.236 124.159C286.663 124.709 288.104 125.241 289.589 125.695C333.164 139.086 384.647 102.876 418.827 73.0862" stroke="url(#paint15_linear_218_24)" stroke-miterlimit="10"/>
<path d="M-44.2721 70.7801C0.309128 96.8316 42.7583 124.896 76.1958 120.857C89.861 125.457 97.2196 127.935 107.115 119.778C114.171 113.962 120.718 103.286 128.792 88.3047C155.019 39.6565 162.692 7.42173 182.869 6.19184C217.993 4.04923 224.125 105.132 281.747 128.592C283.198 129.183 284.666 129.749 286.174 130.239C330.349 144.601 383.375 107.669 418.549 77.3556" stroke="url(#paint16_linear_218_24)" stroke-miterlimit="10"/>
<path d="M-46.2178 74.7809C-3.921 99.9766 39.4509 127.059 74.3504 120.684C88.1764 123.249 96.3332 123.323 106.107 114.527C113.109 108.232 119.482 97.8497 126.951 84.0026C151.451 38.6083 159.533 6.06477 179.533 5.15446C214.853 3.54206 220.092 108.114 278.258 133.007C279.732 133.639 281.228 134.239 282.764 134.766C327.538 150.111 382.096 112.462 418.271 81.624" stroke="url(#paint17_linear_218_24)" stroke-miterlimit="10"/>
<path d="M-48.1629 78.7757C-8.15166 103.107 35.6846 114.01 72.5069 120.502C86.2858 122.932 95.4451 118.7 105.101 109.265C112.047 102.486 118.248 92.4024 125.112 79.6944C147.886 37.5503 156.375 4.70662 176.198 4.11225C211.711 3.04821 216.053 111.106 274.769 137.432C276.266 138.103 277.792 138.739 279.355 139.301C324.727 155.623 380.816 117.258 417.994 85.9044" stroke="url(#paint18_linear_218_24)" stroke-miterlimit="10"/>
<path d="M-50.1086 82.7703C-12.3782 106.254 32.0035 127.956 70.6627 120.328C84.6085 117.575 94.5527 114.085 104.095 104.01C110.981 96.7469 117.012 86.9635 123.271 75.3934C144.321 36.5019 153.215 3.36044 172.863 3.07839C208.566 2.56513 212.009 114.104 271.279 141.857C272.801 142.569 274.354 143.234 275.946 143.836C321.953 161.039 379.544 122.053 417.719 90.1786" stroke="url(#paint19_linear_218_24)" stroke-miterlimit="10"/>
<path d="M-52.0543 86.765C-16.6107 109.393 28.9949 131.825 68.8186 120.15C82.9446 116.007 93.6579 109.467 103.089 98.7528C109.913 91.0055 115.777 81.5199 121.431 71.0901C140.754 35.4501 150.055 1.92967 169.528 2.03983C205.421 2.2432 207.918 117.189 267.79 146.278C269.334 147.033 270.916 147.73 272.535 148.368C319.133 166.588 378.268 126.848 417.437 94.4542" stroke="url(#paint20_linear_218_24)" stroke-miterlimit="10"/>
<path d="M-54 90.7597C-20.8407 112.531 26.222 135.67 66.9734 119.971C128.406 96.3003 133.721 0.445572 166.194 1.00241C203.211 1.63672 203.968 126.338 269.126 152.9C316.311 172.135 376.997 131.641 417.159 98.7261" stroke="url(#paint21_linear_218_24)" stroke-miterlimit="10"/>
</g>
<defs>
<linearGradient id="paint0_linear_218_24" x1="431.832" y1="105.412" x2="-19.0337" y2="105.412" gradientUnits="userSpaceOnUse">
<stop stop-color="#ED711E"/>
<stop offset="1" stop-color="#E9295C"/>
</linearGradient>
<linearGradient id="paint1_linear_218_24" x1="431.584" y1="104.757" x2="-21.0045" y2="104.757" gradientUnits="userSpaceOnUse">
<stop stop-color="#ED711E"/>
<stop offset="1" stop-color="#E9295C"/>
</linearGradient>
<linearGradient id="paint2_linear_218_24" x1="431.342" y1="104.109" x2="-22.9689" y2="104.109" gradientUnits="userSpaceOnUse">
<stop stop-color="#ED711E"/>
<stop offset="1" stop-color="#E9295C"/>
</linearGradient>
<linearGradient id="paint3_linear_218_24" x1="431.091" y1="103.454" x2="-24.9376" y2="103.454" gradientUnits="userSpaceOnUse">
<stop stop-color="#ED711E"/>
<stop offset="1" stop-color="#E9295C"/>
</linearGradient>
<linearGradient id="paint4_linear_218_24" x1="430.853" y1="100.369" x2="-26.9059" y2="100.369" gradientUnits="userSpaceOnUse">
<stop stop-color="#ED711E"/>
<stop offset="1" stop-color="#E9295C"/>
</linearGradient>
<linearGradient id="paint5_linear_218_24" x1="430.611" y1="97.2882" x2="-28.8742" y2="97.2882" gradientUnits="userSpaceOnUse">
<stop stop-color="#ED711E"/>
<stop offset="1" stop-color="#E9295C"/>
</linearGradient>
<linearGradient id="paint6_linear_218_24" x1="430.362" y1="94.213" x2="-30.8411" y2="94.213" gradientUnits="userSpaceOnUse">
<stop stop-color="#ED711E"/>
<stop offset="1" stop-color="#E9295C"/>
</linearGradient>
<linearGradient id="paint7_linear_218_24" x1="430.121" y1="91.1499" x2="-32.8094" y2="91.1499" gradientUnits="userSpaceOnUse">
<stop stop-color="#ED711E"/>
<stop offset="1" stop-color="#E9295C"/>
</linearGradient>
<linearGradient id="paint8_linear_218_24" x1="429.877" y1="88.1043" x2="-34.7776" y2="88.1043" gradientUnits="userSpaceOnUse">
<stop stop-color="#ED711E"/>
<stop offset="1" stop-color="#E9295C"/>
</linearGradient>
<linearGradient id="paint9_linear_218_24" x1="429.632" y1="85.077" x2="-36.7458" y2="85.077" gradientUnits="userSpaceOnUse">
<stop stop-color="#ED711E"/>
<stop offset="1" stop-color="#E9295C"/>
</linearGradient>
<linearGradient id="paint10_linear_218_24" x1="429.388" y1="82.0754" x2="-38.7133" y2="82.0754" gradientUnits="userSpaceOnUse">
<stop stop-color="#ED711E"/>
<stop offset="1" stop-color="#E9295C"/>
</linearGradient>
<linearGradient id="paint11_linear_218_24" x1="429.143" y1="79.1027" x2="-40.6816" y2="79.1027" gradientUnits="userSpaceOnUse">
<stop stop-color="#ED711E"/>
<stop offset="1" stop-color="#E9295C"/>
</linearGradient>
<linearGradient id="paint12_linear_218_24" x1="428.903" y1="76.19" x2="-42.6499" y2="76.19" gradientUnits="userSpaceOnUse">
<stop stop-color="#ED711E"/>
<stop offset="1" stop-color="#E9295C"/>
</linearGradient>
<linearGradient id="paint13_linear_218_24" x1="428.662" y1="73.3409" x2="-44.6143" y2="73.3409" gradientUnits="userSpaceOnUse">
<stop stop-color="#ED711E"/>
<stop offset="1" stop-color="#E9295C"/>
</linearGradient>
<linearGradient id="paint14_linear_218_24" x1="428.407" y1="70.5907" x2="-46.585" y2="70.5907" gradientUnits="userSpaceOnUse">
<stop stop-color="#ED711E"/>
<stop offset="1" stop-color="#E9295C"/>
</linearGradient>
<linearGradient id="paint15_linear_218_24" x1="428.167" y1="67.9925" x2="-48.5532" y2="67.9925" gradientUnits="userSpaceOnUse">
<stop stop-color="#ED711E"/>
<stop offset="1" stop-color="#E9295C"/>
</linearGradient>
<linearGradient id="paint16_linear_218_24" x1="427.923" y1="69.791" x2="-50.5215" y2="69.791" gradientUnits="userSpaceOnUse">
<stop stop-color="#ED711E"/>
<stop offset="1" stop-color="#E9295C"/>
</linearGradient>
<linearGradient id="paint17_linear_218_24" x1="427.679" y1="71.7145" x2="-52.4897" y2="71.7145" gradientUnits="userSpaceOnUse">
<stop stop-color="#ED711E"/>
<stop offset="1" stop-color="#E9295C"/>
</linearGradient>
<linearGradient id="paint18_linear_218_24" x1="427.435" y1="73.6407" x2="-54.4573" y2="73.6407" gradientUnits="userSpaceOnUse">
<stop stop-color="#ED711E"/>
<stop offset="1" stop-color="#E9295C"/>
</linearGradient>
<linearGradient id="paint19_linear_218_24" x1="427.194" y1="75.5553" x2="-56.4256" y2="75.5553" gradientUnits="userSpaceOnUse">
<stop stop-color="#ED711E"/>
<stop offset="1" stop-color="#E9295C"/>
</linearGradient>
<linearGradient id="paint20_linear_218_24" x1="426.946" y1="77.4913" x2="-58.3938" y2="77.4913" gradientUnits="userSpaceOnUse">
<stop stop-color="#ED711E"/>
<stop offset="1" stop-color="#E9295C"/>
</linearGradient>
<linearGradient id="paint21_linear_218_24" x1="426.702" y1="79.4291" x2="-60.362" y2="79.4291" gradientUnits="userSpaceOnUse">
<stop stop-color="#ED711E"/>
<stop offset="1" stop-color="#E9295C"/>
</linearGradient>
</defs>
</svg>
